<?xml version="1.0" encoding="UTF-8"?>
<!DOCTYPE svg PUBLIC "-//W3C//DTD SVG 1.1//EN" "http://www.w3.org/Graphics/SVG/1.1/DTD/svg11.dtd">
<svg version="1.1" xmlns="http://www.w3.org/2000/svg" xmlns:xlink="http://www.w3.org/1999/xlink" x="0px" y="0px" width="641" height="641" viewBox="0, 0, 641, 641">
  <g id="Layer_2">
    <g>
      <path d="M320.5,0.5 C429.807,1.002 530.991,55.833 590.087,148.023 C623.631,200.352 639.716,258.555 640.5,320.5 C640.5,497.231 497.231,640.5 320.5,640.5 C222.388,640.275 129.416,595.265 68.751,518.064 C19.492,455.377 -4.597,375.329 1.433,295.879 C9.823,185.338 76.201,86.009 174.819,35.508 C207.583,18.73 243.225,7.706 279.744,3.071 C294.125,1.245 297.74,1.339 312.241,0.604 z" fill="#000000"/>
      <path d="M320.5,0.5 C429.807,1.002 530.991,55.833 590.087,148.023 C623.631,200.352 639.716,258.555 640.5,320.5 C640.5,497.231 497.231,640.5 320.5,640.5 C222.388,640.275 129.416,595.265 68.751,518.064 C19.492,455.377 -4.597,375.329 1.433,295.879 C9.823,185.338 76.201,86.009 174.819,35.508 C207.583,18.73 243.225,7.706 279.744,3.071 C294.125,1.245 297.74,1.339 312.241,0.604 z" fill-opacity="0" stroke="#000000" stroke-width="1"/>
    </g>
    <path d="M160.258,42.889 L160.258,597.948 C158.981,597.333 157.794,596.577 156.592,595.83 C155.96,595.303 155.068,595.095 154.457,594.553 C153.824,594.185 153.283,593.858 152.223,593.208 C152.095,593.13 152.095,593.13 151.968,593.052 C150.863,592.437 149.842,591.795 148.846,591.037 C148.791,591 148.727,590.979 148.668,590.949 L148.656,590.949 C148.13,590.622 147.604,590.293 147.078,589.964 C146.868,589.831 145.385,588.893 145.045,588.679 C144.632,588.518 144.243,588.192 143.896,587.959 C143.718,587.841 143.718,587.841 143.54,587.721 C142.345,586.926 141.154,586.123 139.94,585.357 L139.92,585.275 L139.775,585.139 C138.563,584.39 137.6,583.743 135.508,582.296 C135.486,582.281 135.486,582.281 135.463,582.265 L134.801,581.807 L134.77,581.786 L134.752,581.692 C132.907,580.031 129.089,578.171 127.524,576.461 C124.848,574.518 122.271,572.442 119.695,570.369 L119.69,570.331 C119.375,569.977 119.63,570.245 118.915,569.696 C117.741,568.796 117.48,568.589 116.414,567.759 C116.412,567.757 116.409,567.755 116.407,567.753 C115.622,567.201 114.914,566.562 114.187,565.941 C113.154,565.018 112.124,564.097 111.027,563.251 L111.024,563.223 C110.808,562.948 110.505,562.744 110.237,562.522 L110.236,562.516 C109.38,561.664 108.43,560.872 107.492,560.1 L107.49,560.06 L107.372,559.899 L105.711,558.394 L105.63,558.292 C104.947,557.716 104.39,557.243 103.184,556.213 C103.166,556.198 103.148,556.183 103.131,556.168 C102.997,556.054 102.863,555.94 102.729,555.825 L102.725,555.764 C102.395,555.316 101.278,554.379 100.772,553.908 C98.96,552.253 99.684,552.89 98.625,551.968 L98.622,551.87 C98.376,551.521 98.545,551.738 97.996,551.226 C97.053,550.348 96.87,550.182 96.013,549.395 C95.936,549.324 95.975,549.36 95.898,549.289 L94.711,548.194 L94.663,548.12 C91.591,544.984 93.117,546.562 90.085,543.388 C89.673,542.949 89.28,542.494 88.865,542.058 C88.82,542.01 88.759,541.979 88.705,541.94 L88.685,541.939 C88.289,541.494 87.859,541.076 87.447,540.644 L87.427,540.624 C86.938,540.092 86.454,539.555 85.96,539.026 L85.321,538.38 C85.107,538.046 84.789,537.777 84.515,537.497 L84.429,537.407 L84.429,537.398 C83.823,536.646 84.221,537.112 83.175,536.052 C82.97,535.811 82.767,535.567 82.552,535.332 C82.176,534.904 81.811,534.431 81.406,534.028 C80.872,533.592 81.318,533.966 80.209,532.755 L80.209,108.425 C80.816,107.591 81.536,106.861 82.235,106.105 C83.011,105.2 83.866,104.378 84.654,103.491 C85.591,102.466 85.427,102.646 86.307,101.684 C87.227,100.697 86.804,101.16 87.578,100.298 C88.142,99.746 88.682,99.173 89.209,98.585 C90.579,97.169 90.068,97.714 90.762,96.969 L90.849,96.963 C91.914,95.912 92.959,94.832 94.014,93.764 C94.283,93.538 94.523,93.283 94.754,93.021 L94.771,93.018 C95.237,92.708 96.012,91.828 96.325,91.512 C97.145,90.59 98.102,89.831 98.978,88.965 C100.535,87.453 99.887,88.123 100.953,86.983 L101.035,86.982 C101.38,86.765 101.671,86.429 101.96,86.152 C102.895,85.179 103.909,84.303 104.86,83.348 C106.037,82.243 107.256,81.185 108.479,80.133 C108.659,79.977 110.262,78.579 110.637,78.218 C110.657,78.192 110.678,78.166 110.699,78.141 C110.705,78.131 110.711,78.121 110.718,78.112 C114.263,75.194 112.897,76.403 114.904,74.586 L114.931,74.587 C115.433,74.323 116.425,73.408 116.814,73.087 C117.696,72.359 118.575,71.628 119.451,70.892 C120.199,70.201 121.033,69.667 121.823,69.036 C122.931,68.131 124.044,67.236 125.173,66.363 C125.938,65.772 126.71,65.189 127.472,64.593 L127.491,64.575 C129.285,63.223 128.56,63.781 129.676,62.916 L129.688,62.915 C130.227,62.684 129.893,62.844 130.854,62.142 C132.596,60.871 132.914,60.623 134.444,59.461 L134.848,59.159 C135.367,58.931 136.447,58.075 136.701,57.894 C137.86,57.024 139.086,56.274 140.246,55.407 L140.853,54.967 L140.941,54.983 C141.234,54.861 141.465,54.678 141.727,54.497 C142.51,53.955 143.301,53.422 144.085,52.88 C144.088,52.878 144.091,52.876 144.094,52.874 C146.318,51.379 145.277,52.093 147.22,50.739 C147.689,50.523 148.105,50.197 148.539,49.916 C150.229,48.773 151.973,47.738 153.696,46.66 L155.061,45.798 L155.087,45.805 C155.675,45.605 156.157,45.242 156.685,44.919 C159.373,43.287 158.289,43.977 159.965,42.891 z" fill="#FFFFFF" fill-opacity="0.807"/>
    <path d="M303.802,0.369 L303.802,640.579 C303.129,640.588 303.381,640.584 303.046,640.589 L303.032,640.582 C302.263,640.592 302.58,640.588 302.083,640.594 C298.902,640.312 300.391,640.43 297.618,640.229 C296.162,640.128 294.706,640.026 293.254,639.877 L293.092,639.925 L293.004,639.913 C292.786,639.887 291.311,639.749 290.861,639.705 L290.787,639.727 C288.679,639.493 289.771,639.61 287.509,639.377 L287.458,639.392 C285.92,639.211 286.71,639.302 285.088,639.12 L285.042,639.132 L284.952,639.122 C281.816,638.785 283.239,638.95 280.683,638.64 C280.405,638.486 280.04,638.501 279.735,638.476 C278.327,638.316 278.188,638.29 276.973,638.121 C276.786,638.095 276.631,638.072 276.288,638.023 C275.212,637.868 274.704,637.797 274.086,637.718 L273.862,637.778 L271.754,637.411 L271.662,637.434 C268.184,636.961 269.952,637.232 266.36,636.614 C263.433,636.029 263.837,636.109 261.617,635.77 L261.527,635.792 C258.139,635.118 259.651,635.406 256.996,634.915 L256.988,634.916 C248.594,633 252.408,633.887 245.543,632.27 L245.418,632.284 C243.811,631.875 244.764,632.11 242.557,631.597 C241.758,631.436 242.308,631.564 240.942,631.093 L240.831,631.099 C240.343,630.969 240.595,631.036 240.076,630.897 C237.853,630.406 235.695,629.793 233.525,629.13 L233.373,629.147 C229.917,628.092 231.925,628.707 227.354,627.295 L227.304,627.299 L227.214,627.275 C226.62,627.077 226.024,626.878 225.428,626.68 L225.31,626.687 C224.83,626.525 225.227,626.659 224.123,626.285 L224.011,626.291 L223.867,626.238 L223.867,14.715 C227.472,13.427 231.18,12.461 234.855,11.401 L234.855,11.398 C241.777,9.607 238.313,10.492 245.246,8.741 C245.252,8.738 245.257,8.735 245.263,8.732 C245.296,8.726 245.329,8.72 245.361,8.713 C251.363,7.436 257.366,6.165 263.369,4.894 L263.372,4.892 C273.018,3.318 282.733,2.229 292.438,1.097 C292.494,1.073 292.554,1.086 292.612,1.08 C292.612,1.08 292.615,1.08 292.615,1.08 C299.224,0.659 295.919,0.87 302.529,0.449 z" fill="#FFFFFF" fill-opacity="0.504"/>
    <path d="M537.264,84.118 C537.305,84.148 537.338,84.178 537.371,84.207 C537.777,84.617 538.067,84.933 538.551,85.33 L538.622,85.353 C545.491,91.773 541.953,88.374 549.218,95.576 C549.788,96.162 550.366,96.741 550.941,97.322 C554.156,100.719 552.246,98.688 556.654,103.431 L556.664,103.451 C557.185,104.078 556.982,103.838 557.271,104.177 C558.236,105.029 559.007,106.036 559.825,107.016 C560.813,107.937 561.65,108.987 562.552,109.988 C563.824,111.41 563.393,110.887 563.904,111.512 L563.903,111.516 C564.114,112.021 564.639,112.684 564.939,113.126 C565.562,114.043 566.173,114.749 566.9,115.613 C567.053,115.794 567.198,115.983 567.358,116.158 C567.403,116.207 567.462,116.241 567.513,116.282 L567.565,116.287 C568.098,116.957 568.616,117.639 569.167,118.294 C570.369,119.561 569.866,119.055 570.655,119.834 L570.649,119.902 C570.891,120.334 570.694,120.008 571.317,120.742 C571.981,121.526 572.645,122.31 573.3,123.102 C574.517,124.702 573.876,123.869 575.225,125.599 C575.234,125.606 575.24,125.616 575.247,125.625 L575.355,125.769 L575.351,125.797 C575.592,126.293 576.123,126.876 576.454,127.311 C577.762,129.048 577.171,128.291 578.211,129.595 L578.188,129.782 C579.058,130.997 580.029,132.153 580.933,133.349 L580.927,133.398 C581.096,133.734 581.364,134.019 581.595,134.313 C581.677,134.421 581.758,134.529 581.84,134.637 C581.86,134.677 581.879,134.717 581.899,134.757 C582.649,135.748 583.37,136.76 584.069,137.787 C584.089,137.817 584.079,137.802 584.1,137.832 C585.572,139.868 586.893,141.987 588.261,144.1 L360.513,202.374 L637.32,271.859 C637.659,273.911 637.971,275.959 638.236,278.02 L638.611,280.728 C638.631,280.951 638.656,281.161 638.689,281.384 C639.065,285.318 638.86,283.585 639.257,286.588 L639.212,286.752 C639.204,286.893 639.244,287.033 639.257,287.172 C639.299,287.592 639.34,288.012 639.382,288.432 C639.637,290.383 639.378,288.469 639.668,290.414 L639.787,291.581 C639.794,291.604 639.797,291.626 639.8,291.648 C639.806,291.718 639.812,291.788 639.817,291.858 C639.844,292.61 639.87,293.358 639.933,294.108 C639.961,294.44 640.001,294.771 640.031,295.103 C640.042,295.231 640.032,295.382 640.069,295.508 L640.079,295.536 C640.24,297.816 640.418,300.093 640.602,302.369 L640.602,302.403 C640.639,303.055 640.678,303.706 640.716,304.357 C640.722,304.448 640.71,304.538 640.701,304.628 C640.68,304.772 640.712,304.919 640.717,305.064 C640.757,305.338 640.741,305.652 640.733,305.931 C640.716,306.03 640.743,306.132 640.748,306.233 C640.755,306.37 640.762,306.508 640.769,306.645 C640.786,306.984 640.803,307.322 640.82,307.661 C640.825,307.761 640.808,307.865 640.835,307.962 L640.838,307.975 L640.835,308.281 C640.862,308.742 640.887,309.202 640.913,309.661 C641.009,310.274 640.988,310.882 641.013,311.493 C641.054,314.371 641.017,312.982 641.117,315.66 C641.121,315.784 641.107,315.914 641.1,316.033 C641.123,316.664 641.192,317.259 641.14,317.879 C641.142,318.486 641.138,318.145 641.155,318.903 C641.165,319.303 641.156,319.703 641.153,320.103 C641.153,320.171 641.152,320.24 641.151,320.308 C641.148,320.32 641.144,320.332 641.141,320.344 C641.145,320.72 641.138,320.468 641.185,321.099 C641.168,321.146 641.155,321.194 641.14,321.241 C641.122,321.345 641.15,321.452 641.154,321.557 C641.161,321.702 641.167,321.846 641.173,321.991 C641.192,322.349 641.242,322.698 641.124,323.037 C641.117,323.199 641.12,323.343 641.121,323.516 L641.113,323.531 C641.09,323.671 641.116,323.816 641.116,323.958 C641.116,324.378 641.116,324.797 641.116,325.217 C641.116,325.879 641.12,326.54 641.122,327.202 C641.123,327.349 641.097,327.498 641.124,327.643 L641.135,327.679 C641.103,328.415 641.072,329.151 641.04,329.887 C641.013,329.985 640.999,330.749 640.992,330.911 C640.984,331.072 640.928,331.835 640.945,331.93 C640.958,332.421 640.923,332.927 640.897,333.42 C640.889,333.823 640.926,334.23 640.835,334.616 C640.808,334.712 640.825,334.815 640.82,334.915 C640.813,335.051 640.806,335.188 640.799,335.324 C640.789,335.524 640.779,335.723 640.769,335.923 C640.762,336.059 640.755,336.195 640.748,336.332 L640.743,336.605 L640.738,336.616 L640.714,337.033 C640.699,337.465 640.679,337.897 640.658,338.329 C640.615,339.317 640.535,340.301 640.459,341.286 C640.449,341.431 640.412,341.577 640.428,341.722 C640.473,342.291 640.391,342.891 640.302,343.461 L80.2,202.16 z" fill="#FFFFFF" fill-opacity="0.801"/>
    <path d="M637.248,271.5 L637.257,271.547 C637.472,272.897 637.399,272.45 637.567,273.609 C638.203,276.075 638.244,278.655 638.644,281.171 C638.857,281.86 638.85,282.576 638.953,283.279 C639.08,284.624 639.19,285.97 639.366,287.309 L639.357,287.32 C639.351,287.438 639.464,288.241 639.484,288.424 C639.546,289.077 639.487,288.279 639.478,288.646 C639.469,288.788 639.509,288.927 639.523,289.067 C639.564,289.487 639.605,289.907 639.647,290.327 C639.7,290.85 639.791,291.367 639.87,291.886 C639.931,292.886 640.039,293.881 640.127,294.878 L640.193,296.001 C640.227,296.335 640.267,296.666 640.297,296.997 C640.308,297.126 640.298,297.276 640.335,297.402 L640.341,297.428 C640.472,299.458 640.701,301.469 640.708,303.499 C640.711,304.167 640.758,304.833 640.792,305.499 C640.799,305.636 640.781,305.776 640.814,305.909 C640.895,306.282 640.846,306.733 640.848,307.126 C640.852,307.574 640.857,308.022 640.862,308.47 C640.864,308.646 640.837,308.825 640.868,308.999 C641.038,309.422 640.999,309.903 641.027,310.352 C641.067,311.008 641.085,311.666 641.11,312.323 C641.115,312.467 641.094,312.614 641.126,312.755 C641.145,315.117 641.136,313.927 641.156,316.331 C641.16,316.743 641.164,317.154 641.168,317.566 C641.172,317.953 641.139,318.341 641.18,318.726 C641.252,319.732 641.191,321.108 641.188,321.943 L641.144,322.076 C641.111,322.65 641.146,323.227 641.114,323.8 C641.105,324.661 641.186,325.512 641.121,326.371 C641.107,326.809 641.092,327.246 641.079,327.683 L641.082,328.674 C641.066,328.726 641.045,328.777 641.024,328.828 C640.991,328.969 641.01,329.118 641.002,329.262 C640.981,329.676 640.96,330.09 640.939,330.503 C640.907,331.159 640.907,331.817 640.897,332.473 C641.036,333.544 640.952,333.854 640.83,335.299 C640.871,335.313 640.838,335.334 640.841,335.352 L640.839,335.602 C640.83,336.028 640.816,336.452 640.802,336.877 C640.742,338.421 640.769,337.691 640.721,339.066 L640.712,339.137 C640.71,339.214 640.703,339.29 640.697,339.365 C640.46,342.05 640.597,340.62 640.277,343.655 L504.518,378.357 L628.602,409.337 L628.577,409.458 C628.474,409.96 628.474,409.96 628.37,410.462 L628.375,410.488 C627.978,411.839 628.133,411.307 627.907,412.084 C627.272,414.319 626.54,416.528 625.84,418.748 C625.302,420.284 625.067,420.968 624.79,421.832 C624.775,421.917 624.718,422.038 624.694,422.1 C624.555,422.465 624.442,422.763 624.334,423.049 C623.802,424.444 623.309,425.854 622.866,427.28 L622.818,427.332 C622.749,427.527 622.155,429.174 622.077,429.409 C621.825,430.202 621.998,429.653 621.562,431.057 C621.445,431.36 620.861,432.887 620.782,433.112 C620.376,434.625 619.659,436.019 619.041,437.452 C619.053,437.69 618.933,437.912 618.847,438.127 C618.661,438.639 618.661,438.639 618.476,439.15 C618.007,440.425 617.425,441.684 616.874,442.933 C616.538,443.813 616.764,443.216 616.211,444.732 L616.204,444.747 C615.837,445.534 615.996,445.191 615.724,445.779 C615.449,446.419 615.182,447.063 614.913,447.706 C614.582,448.76 614.047,449.707 613.575,450.692 C613.431,451.081 613.281,451.472 613.135,451.857 L611.047,456.246 C610.903,456.528 610.764,456.81 610.623,457.093 C609.564,459.558 608.333,461.949 607.127,464.351 C606.999,464.578 606.153,466.169 605.997,466.46 C605.804,466.798 605.615,467.153 605.437,467.505 L605.455,467.601 C605.25,468.029 604.973,468.415 604.764,468.846 L604.765,468.863 C604.408,469.5 604.509,469.232 604.379,469.631 C604.221,469.894 604.317,469.738 604.095,470.105 C603.962,470.335 603.084,471.965 602.944,472.224 L602.882,472.412 L602.884,472.421 L602.298,473.321 L223.861,378.143 z" fill="#FFFFFF" fill-opacity="0.508"/>
  </g>
  <defs/>
</svg>
