<?xml version="1.0" encoding="UTF-8"?>
<!DOCTYPE svg PUBLIC "-//W3C//DTD SVG 1.1//EN" "http://www.w3.org/Graphics/SVG/1.1/DTD/svg11.dtd">
<svg version="1.1" xmlns="http://www.w3.org/2000/svg" xmlns:xlink="http://www.w3.org/1999/xlink" x="0px" y="0px" width="150" height="150" viewBox="0, 0, 150, 150">
  <g id="Layer_2">
    <g>
      <path d="M75.147,0.5 C100.648,0.617 124.253,13.408 138.039,34.914 C145.865,47.122 149.617,60.699 149.8,75.15 C149.8,116.378 116.377,149.8 75.147,149.8 C52.259,149.748 30.57,139.248 16.417,121.238 C4.925,106.614 -0.694,87.941 0.712,69.406 C2.67,43.619 18.155,20.448 41.162,8.667 C48.805,4.753 57.12,2.181 65.639,1.1 C68.994,0.674 69.838,0.696 73.221,0.524 z" fill="#000000"/>
      <path d="M75.147,0.5 C100.648,0.617 124.253,13.408 138.039,34.914 C145.865,47.122 149.617,60.699 149.8,75.15 C149.8,116.378 116.377,149.8 75.147,149.8 C52.259,149.748 30.57,139.248 16.417,121.238 C4.925,106.614 -0.694,87.941 0.712,69.406 C2.67,43.619 18.155,20.448 41.162,8.667 C48.805,4.753 57.12,2.181 65.639,1.1 C68.994,0.674 69.838,0.696 73.221,0.524 z" fill-opacity="0" stroke="#000000" stroke-width="0.234"/>
    </g>
    <path d="M37.502,10.036 L37.502,139.926 C37.203,139.782 36.925,139.605 36.644,139.43 C36.496,139.307 36.287,139.258 36.144,139.131 C35.996,139.045 35.87,138.969 35.622,138.817 C35.592,138.798 35.592,138.798 35.562,138.78 C35.303,138.636 35.065,138.486 34.832,138.309 C34.819,138.3 34.804,138.295 34.79,138.288 L34.787,138.288 C34.664,138.211 34.541,138.134 34.418,138.057 C34.369,138.026 34.021,137.807 33.942,137.757 C33.845,137.719 33.754,137.643 33.673,137.588 C33.631,137.561 33.631,137.561 33.59,137.533 C33.31,137.347 33.031,137.159 32.747,136.979 L32.743,136.96 L32.709,136.928 C32.425,136.753 32.2,136.602 31.71,136.263 C31.705,136.259 31.705,136.259 31.7,136.256 L31.545,136.149 L31.538,136.144 L31.533,136.122 C31.102,135.733 30.208,135.298 29.842,134.898 C29.216,134.443 28.613,133.957 28.01,133.472 L28.009,133.463 C27.935,133.38 27.995,133.443 27.827,133.315 C27.553,133.104 27.491,133.056 27.242,132.861 C27.242,132.861 27.241,132.86 27.24,132.86 C27.057,132.731 26.891,132.581 26.721,132.436 C26.479,132.22 26.238,132.004 25.981,131.806 L25.981,131.8 C25.93,131.735 25.859,131.688 25.796,131.636 L25.796,131.634 C25.596,131.435 25.374,131.25 25.154,131.069 L25.154,131.06 L25.126,131.022 L24.737,130.67 L24.718,130.646 C24.559,130.511 24.428,130.4 24.146,130.159 C24.142,130.156 24.138,130.152 24.134,130.149 C24.102,130.122 24.071,130.095 24.04,130.069 L24.039,130.054 C23.961,129.95 23.7,129.73 23.582,129.62 C23.158,129.233 23.327,129.382 23.079,129.166 L23.079,129.143 C23.021,129.061 23.061,129.112 22.932,128.992 C22.711,128.787 22.668,128.748 22.468,128.564 C22.45,128.547 22.459,128.556 22.441,128.539 L22.163,128.283 L22.152,128.266 C21.433,127.532 21.79,127.901 21.081,127.158 C20.984,127.056 20.892,126.949 20.795,126.847 C20.785,126.836 20.77,126.829 20.758,126.819 L20.753,126.819 C20.66,126.715 20.56,126.617 20.464,126.516 L20.459,126.511 C20.344,126.387 20.231,126.261 20.115,126.138 L19.966,125.986 C19.916,125.908 19.842,125.845 19.777,125.78 L19.757,125.759 L19.757,125.756 C19.615,125.581 19.709,125.69 19.464,125.442 C19.416,125.385 19.368,125.328 19.318,125.273 C19.23,125.173 19.145,125.062 19.05,124.968 C18.925,124.866 19.029,124.953 18.77,124.67 L18.77,25.372 C18.912,25.177 19.08,25.007 19.244,24.83 C19.425,24.618 19.625,24.426 19.81,24.218 C20.029,23.978 19.991,24.02 20.197,23.795 C20.412,23.564 20.313,23.672 20.494,23.471 C20.626,23.342 20.752,23.207 20.876,23.07 C21.196,22.739 21.077,22.866 21.239,22.692 L21.26,22.69 C21.509,22.444 21.753,22.192 22,21.942 C22.063,21.889 22.119,21.829 22.173,21.768 L22.177,21.767 C22.286,21.695 22.468,21.489 22.541,21.415 C22.733,21.199 22.957,21.021 23.162,20.819 C23.526,20.465 23.375,20.622 23.624,20.355 L23.643,20.355 C23.724,20.304 23.792,20.225 23.86,20.16 C24.079,19.933 24.316,19.728 24.538,19.504 C24.814,19.246 25.099,18.998 25.385,18.752 C25.427,18.715 25.802,18.388 25.89,18.304 C25.895,18.298 25.9,18.292 25.905,18.286 C25.906,18.283 25.908,18.281 25.909,18.279 C26.739,17.596 26.419,17.879 26.889,17.454 L26.895,17.454 C27.012,17.392 27.245,17.178 27.336,17.103 C27.542,16.933 27.748,16.762 27.953,16.59 C28.128,16.428 28.323,16.303 28.508,16.155 C28.767,15.943 29.027,15.734 29.292,15.53 C29.471,15.391 29.651,15.255 29.83,15.115 L29.834,15.111 C30.254,14.795 30.084,14.925 30.346,14.723 L30.348,14.723 C30.474,14.669 30.396,14.706 30.621,14.542 C31.029,14.245 31.103,14.186 31.461,13.914 L31.556,13.844 C31.677,13.79 31.93,13.59 31.989,13.548 C32.261,13.344 32.548,13.169 32.819,12.966 L32.961,12.863 L32.982,12.867 C33.05,12.838 33.104,12.795 33.166,12.753 C33.349,12.626 33.534,12.501 33.717,12.375 C33.718,12.374 33.719,12.374 33.719,12.373 C34.24,12.023 33.996,12.19 34.451,11.873 C34.561,11.823 34.658,11.747 34.76,11.681 C35.155,11.413 35.563,11.171 35.966,10.919 L36.286,10.717 L36.292,10.719 C36.43,10.672 36.542,10.587 36.666,10.511 C37.295,10.13 37.041,10.291 37.433,10.037 z" fill="#FFFFFF" fill-opacity="0.807"/>
    <path d="M71.093,0.086 L71.093,149.902 C70.935,149.904 70.994,149.903 70.916,149.904 L70.912,149.903 C70.733,149.905 70.807,149.904 70.69,149.905 C69.946,149.839 70.295,149.867 69.645,149.82 C69.305,149.796 68.964,149.772 68.624,149.738 L68.587,149.749 L68.566,149.746 C68.515,149.74 68.17,149.708 68.064,149.697 L68.047,149.702 C67.554,149.648 67.809,149.675 67.28,149.62 L67.268,149.624 C66.908,149.582 67.093,149.603 66.713,149.56 L66.703,149.563 L66.682,149.561 C65.948,149.482 66.281,149.521 65.683,149.448 C65.618,149.412 65.532,149.416 65.461,149.41 C65.131,149.372 65.099,149.366 64.814,149.327 C64.771,149.32 64.734,149.315 64.654,149.304 C64.402,149.267 64.284,149.251 64.139,149.232 L64.086,149.246 L63.593,149.16 L63.572,149.166 C62.758,149.055 63.171,149.119 62.331,148.974 C61.646,148.837 61.74,148.856 61.221,148.777 L61.2,148.782 C60.407,148.624 60.761,148.691 60.14,148.576 L60.138,148.577 C58.173,148.128 59.066,148.336 57.46,147.957 L57.43,147.961 C57.054,147.865 57.277,147.92 56.761,147.8 C56.574,147.762 56.702,147.792 56.383,147.682 L56.357,147.684 C56.243,147.653 56.302,147.669 56.18,147.636 C55.66,147.521 55.155,147.378 54.647,147.223 L54.612,147.227 C53.803,146.98 54.273,147.124 53.203,146.793 L53.191,146.794 L53.17,146.788 C53.031,146.742 52.892,146.696 52.752,146.649 L52.725,146.651 C52.613,146.613 52.705,146.645 52.447,146.557 L52.421,146.558 L52.387,146.546 L52.387,3.443 C53.231,3.142 54.098,2.916 54.958,2.668 L54.958,2.667 C56.578,2.248 55.768,2.455 57.39,2.046 C57.391,2.045 57.393,2.044 57.394,2.043 C57.402,2.042 57.409,2.04 57.417,2.039 C58.821,1.74 60.226,1.443 61.631,1.145 L61.632,1.145 C63.889,0.776 66.162,0.522 68.433,0.257 C68.447,0.251 68.461,0.254 68.474,0.253 C68.474,0.253 68.475,0.253 68.475,0.253 C70.021,0.154 69.248,0.203 70.795,0.105 z" fill="#FFFFFF" fill-opacity="0.504"/>
    <path d="M125.725,19.684 C125.735,19.692 125.742,19.698 125.75,19.705 C125.845,19.801 125.913,19.875 126.026,19.968 L126.043,19.973 C127.65,21.476 126.822,20.68 128.523,22.366 C128.656,22.503 128.791,22.638 128.926,22.774 C129.678,23.569 129.231,23.094 130.263,24.204 L130.265,24.209 C130.387,24.355 130.339,24.299 130.407,24.379 C130.633,24.578 130.813,24.814 131.005,25.043 C131.236,25.258 131.432,25.504 131.643,25.738 C131.941,26.071 131.839,25.949 131.959,26.095 L131.959,26.096 C132.008,26.214 132.131,26.369 132.201,26.473 C132.347,26.687 132.49,26.852 132.66,27.055 C132.696,27.097 132.73,27.141 132.768,27.182 C132.778,27.194 132.792,27.202 132.804,27.211 L132.816,27.212 C132.941,27.369 133.062,27.529 133.191,27.682 C133.472,27.978 133.354,27.86 133.539,28.042 L133.538,28.058 C133.594,28.159 133.548,28.083 133.694,28.255 C133.849,28.438 134.005,28.622 134.158,28.807 C134.443,29.182 134.293,28.987 134.608,29.391 C134.611,29.393 134.612,29.396 134.614,29.398 L134.639,29.431 L134.638,29.438 C134.694,29.554 134.819,29.69 134.896,29.792 C135.202,30.199 135.064,30.021 135.307,30.327 L135.302,30.37 C135.505,30.655 135.733,30.925 135.944,31.205 L135.943,31.216 C135.982,31.295 136.045,31.362 136.099,31.431 C136.118,31.456 136.137,31.481 136.156,31.506 C136.161,31.516 136.166,31.525 136.17,31.534 C136.346,31.766 136.514,32.003 136.678,32.244 C136.683,32.251 136.68,32.247 136.685,32.254 C137.03,32.731 137.339,33.226 137.659,33.721 L84.364,47.358 L149.139,63.618 C149.219,64.098 149.292,64.577 149.354,65.059 L149.441,65.693 C149.446,65.745 149.452,65.794 149.46,65.847 C149.548,66.767 149.5,66.362 149.592,67.065 L149.582,67.103 C149.58,67.136 149.589,67.169 149.593,67.201 C149.602,67.3 149.612,67.398 149.622,67.496 C149.682,67.952 149.621,67.505 149.689,67.96 L149.717,68.233 C149.718,68.238 149.719,68.243 149.72,68.249 C149.721,68.265 149.722,68.281 149.724,68.298 C149.73,68.474 149.736,68.649 149.751,68.824 C149.757,68.902 149.767,68.979 149.774,69.057 C149.776,69.087 149.774,69.122 149.783,69.152 L149.785,69.159 C149.823,69.692 149.864,70.225 149.907,70.757 L149.907,70.765 C149.916,70.918 149.925,71.07 149.934,71.223 C149.935,71.244 149.932,71.265 149.931,71.286 C149.926,71.32 149.933,71.354 149.934,71.388 C149.943,71.452 149.94,71.526 149.938,71.591 C149.934,71.614 149.94,71.638 149.941,71.662 C149.943,71.694 149.945,71.726 149.946,71.758 C149.95,71.837 149.954,71.917 149.958,71.996 C149.959,72.019 149.955,72.044 149.962,72.066 L149.962,72.069 L149.962,72.141 C149.968,72.249 149.974,72.356 149.98,72.464 C150.003,72.607 149.998,72.75 150.004,72.892 C150.013,73.566 150.004,73.241 150.028,73.868 C150.029,73.897 150.025,73.927 150.024,73.955 C150.029,74.103 150.045,74.242 150.033,74.387 C150.034,74.529 150.033,74.449 150.037,74.626 C150.039,74.72 150.037,74.814 150.036,74.907 C150.036,74.923 150.036,74.939 150.036,74.955 C150.035,74.958 150.034,74.961 150.033,74.964 C150.034,75.052 150.033,74.993 150.044,75.14 C150.04,75.151 150.037,75.163 150.033,75.174 C150.029,75.198 150.035,75.223 150.037,75.248 C150.038,75.281 150.039,75.315 150.041,75.349 C150.045,75.433 150.057,75.515 150.029,75.594 C150.028,75.632 150.028,75.666 150.029,75.706 L150.027,75.709 C150.021,75.742 150.028,75.776 150.028,75.809 C150.028,75.908 150.028,76.006 150.028,76.104 C150.028,76.259 150.028,76.414 150.029,76.569 C150.029,76.603 150.023,76.638 150.029,76.672 L150.032,76.68 C150.025,76.852 150.017,77.025 150.01,77.197 C150.003,77.22 150,77.399 149.998,77.436 C149.997,77.474 149.984,77.653 149.987,77.675 C149.991,77.79 149.982,77.908 149.976,78.024 C149.974,78.118 149.983,78.213 149.962,78.303 C149.956,78.326 149.959,78.35 149.958,78.373 C149.957,78.405 149.955,78.437 149.953,78.469 C149.951,78.516 149.949,78.563 149.946,78.609 C149.945,78.641 149.943,78.673 149.942,78.705 L149.94,78.769 L149.939,78.772 L149.934,78.869 C149.93,78.97 149.925,79.071 149.92,79.172 C149.91,79.404 149.892,79.634 149.874,79.864 C149.871,79.898 149.863,79.932 149.867,79.966 C149.877,80.1 149.858,80.24 149.837,80.373 L18.768,47.307 z" fill="#FFFFFF" fill-opacity="0.801"/>
    <path d="M149.123,63.534 L149.124,63.545 C149.175,63.861 149.158,63.756 149.197,64.027 C149.346,64.604 149.356,65.208 149.449,65.797 C149.499,65.958 149.497,66.126 149.521,66.29 C149.551,66.605 149.577,66.92 149.618,67.233 L149.616,67.236 C149.615,67.263 149.641,67.451 149.646,67.494 C149.66,67.647 149.646,67.46 149.644,67.546 C149.642,67.579 149.651,67.612 149.655,67.645 C149.664,67.743 149.674,67.841 149.684,67.939 C149.696,68.062 149.718,68.183 149.736,68.304 C149.75,68.538 149.776,68.771 149.796,69.004 L149.812,69.267 C149.819,69.345 149.829,69.423 149.836,69.5 C149.839,69.53 149.836,69.566 149.845,69.595 L149.846,69.601 C149.877,70.076 149.93,70.547 149.932,71.022 C149.933,71.178 149.944,71.334 149.952,71.49 C149.953,71.522 149.949,71.555 149.957,71.586 C149.976,71.673 149.964,71.779 149.965,71.87 C149.966,71.975 149.967,72.08 149.968,72.185 C149.969,72.226 149.962,72.268 149.969,72.309 C150.009,72.408 150,72.521 150.007,72.626 C150.016,72.779 150.02,72.933 150.026,73.087 C150.027,73.12 150.022,73.155 150.03,73.188 C150.034,73.741 150.032,73.462 150.037,74.025 C150.038,74.121 150.039,74.217 150.04,74.314 C150.041,74.404 150.033,74.495 150.043,74.585 C150.059,74.82 150.045,75.142 150.044,75.338 L150.034,75.369 C150.026,75.503 150.035,75.638 150.027,75.772 C150.025,75.974 150.044,76.173 150.029,76.374 C150.025,76.477 150.022,76.579 150.019,76.681 L150.02,76.913 C150.016,76.925 150.011,76.937 150.006,76.949 C149.998,76.982 150.003,77.017 150.001,77.051 C149.996,77.147 149.991,77.244 149.986,77.341 C149.979,77.495 149.979,77.648 149.976,77.802 C150.009,78.053 149.989,78.125 149.961,78.463 C149.97,78.467 149.962,78.472 149.963,78.476 L149.963,78.534 C149.961,78.634 149.957,78.733 149.954,78.832 C149.94,79.194 149.946,79.023 149.935,79.345 L149.933,79.361 C149.932,79.379 149.931,79.397 149.93,79.415 C149.874,80.043 149.906,79.708 149.831,80.419 L118.062,88.539 L147.099,95.789 L147.093,95.817 C147.069,95.935 147.069,95.935 147.045,96.052 L147.046,96.058 C146.953,96.374 146.989,96.25 146.937,96.432 C146.788,96.955 146.617,97.472 146.453,97.991 C146.327,98.351 146.272,98.511 146.207,98.713 C146.204,98.733 146.19,98.761 146.185,98.776 C146.152,98.861 146.126,98.931 146.1,98.998 C145.976,99.324 145.86,99.654 145.757,99.988 L145.746,100 C145.73,100.046 145.59,100.431 145.572,100.486 C145.513,100.672 145.554,100.543 145.452,100.872 C145.424,100.943 145.288,101.3 145.269,101.352 C145.174,101.707 145.006,102.033 144.862,102.368 C144.865,102.424 144.836,102.476 144.816,102.526 C144.773,102.646 144.773,102.646 144.73,102.766 C144.62,103.064 144.484,103.358 144.355,103.651 C144.276,103.857 144.329,103.717 144.2,104.072 L144.198,104.075 C144.112,104.259 144.149,104.179 144.086,104.317 C144.021,104.467 143.959,104.617 143.896,104.768 C143.818,105.014 143.693,105.236 143.583,105.467 C143.549,105.557 143.514,105.649 143.48,105.739 L142.991,106.766 C142.958,106.832 142.925,106.898 142.892,106.964 C142.644,107.541 142.356,108.101 142.074,108.663 C142.044,108.716 141.846,109.088 141.809,109.156 C141.764,109.235 141.72,109.319 141.678,109.401 L141.683,109.423 C141.635,109.523 141.57,109.614 141.521,109.715 L141.521,109.719 C141.437,109.868 141.461,109.805 141.431,109.898 C141.394,109.96 141.416,109.923 141.364,110.009 C141.333,110.063 141.128,110.444 141.095,110.505 L141.08,110.549 L141.081,110.551 L140.944,110.762 L52.386,88.489 z" fill="#FFFFFF" fill-opacity="0.508"/>
  </g>
  <defs/>
</svg>
