<?xml version="1.0" encoding="UTF-8"?>
<!DOCTYPE svg PUBLIC "-//W3C//DTD SVG 1.1//EN" "http://www.w3.org/Graphics/SVG/1.1/DTD/svg11.dtd">
<svg version="1.1" xmlns="http://www.w3.org/2000/svg" xmlns:xlink="http://www.w3.org/1999/xlink" x="0px" y="0px" width="600.002" height="600.002" viewBox="0, 0, 600.002, 600.002">
  <g id="Layer_2">
    <g>
      <path d="M300.033,0.5 C402.348,0.97 497.061,52.294 552.377,138.588 C583.775,187.569 598.832,242.049 599.565,300.033 C599.566,465.46 465.46,599.566 300.033,599.566 C208.196,599.355 121.171,557.224 64.386,484.96 C18.278,426.283 -4.271,351.355 1.373,276.987 C9.226,173.516 71.359,80.539 163.67,33.269 C194.338,17.564 227.701,7.245 261.883,2.906 C275.345,1.198 278.728,1.285 292.302,0.598 z" fill="#000000"/>
      <path d="M300.033,0.5 C402.348,0.97 497.061,52.294 552.377,138.588 C583.775,187.569 598.832,242.049 599.565,300.033 C599.566,465.46 465.46,599.566 300.033,599.566 C208.196,599.355 121.171,557.224 64.386,484.96 C18.278,426.283 -4.271,351.355 1.373,276.987 C9.226,173.516 71.359,80.539 163.67,33.269 C194.338,17.564 227.701,7.245 261.883,2.906 C275.345,1.198 278.728,1.285 292.302,0.598 z" fill-opacity="0" stroke="#000000" stroke-width="0.936"/>
    </g>
    <path d="M150.008,40.145 L150.008,559.703 C148.813,559.128 147.701,558.42 146.577,557.721 C145.985,557.228 145.15,557.033 144.578,556.525 C143.985,556.181 143.479,555.875 142.486,555.267 C142.367,555.194 142.367,555.194 142.248,555.121 C141.214,554.545 140.258,553.944 139.326,553.234 C139.275,553.2 139.215,553.18 139.159,553.152 L139.148,553.152 C138.656,552.846 138.164,552.538 137.671,552.23 C137.474,552.106 136.086,551.228 135.768,551.027 C135.382,550.876 135.018,550.571 134.692,550.354 C134.526,550.242 134.526,550.242 134.359,550.131 C133.24,549.386 132.126,548.634 130.989,547.917 L130.971,547.84 L130.835,547.713 C129.7,547.012 128.799,546.407 126.841,545.053 C126.82,545.038 126.82,545.038 126.799,545.023 L126.179,544.595 L126.15,544.575 L126.133,544.487 C124.406,542.932 120.833,541.191 119.367,539.591 C116.862,537.771 114.451,535.828 112.039,533.888 L112.034,533.852 C111.739,533.521 111.978,533.772 111.309,533.258 C110.21,532.416 109.966,532.223 108.968,531.445 C108.966,531.443 108.964,531.441 108.962,531.44 C108.227,530.923 107.564,530.325 106.883,529.743 C105.917,528.88 104.952,528.018 103.926,527.226 L103.923,527.199 C103.721,526.942 103.437,526.751 103.186,526.543 L103.186,526.538 C102.384,525.74 101.495,524.999 100.617,524.276 L100.615,524.238 L100.504,524.088 L98.949,522.679 L98.874,522.583 C98.234,522.045 97.713,521.601 96.584,520.638 C96.567,520.623 96.551,520.609 96.534,520.595 C96.409,520.489 96.284,520.382 96.158,520.275 L96.155,520.218 C95.845,519.798 94.8,518.921 94.326,518.48 C92.63,516.931 93.308,517.528 92.317,516.664 L92.314,516.572 C92.084,516.246 92.242,516.448 91.728,515.97 C90.845,515.148 90.674,514.992 89.872,514.256 C89.8,514.19 89.836,514.223 89.764,514.157 L88.653,513.132 L88.608,513.063 C85.733,510.127 87.161,511.604 84.323,508.632 C83.938,508.222 83.57,507.796 83.181,507.388 C83.139,507.343 83.082,507.315 83.032,507.278 L83.013,507.276 C82.642,506.86 82.24,506.469 81.854,506.065 L81.835,506.046 C81.377,505.548 80.924,505.045 80.462,504.55 L79.864,503.945 C79.663,503.632 79.366,503.381 79.109,503.119 L79.029,503.035 L79.029,503.026 C78.461,502.322 78.835,502.758 77.855,501.766 C77.663,501.541 77.473,501.312 77.272,501.092 C76.92,500.691 76.578,500.249 76.199,499.872 C75.699,499.463 76.117,499.814 75.079,498.68 L75.079,101.49 C75.647,100.71 76.321,100.027 76.975,99.319 C77.702,98.472 78.501,97.702 79.239,96.871 C80.117,95.913 79.963,96.08 80.787,95.18 C81.648,94.256 81.252,94.69 81.977,93.883 C82.504,93.367 83.01,92.83 83.503,92.28 C84.786,90.954 84.307,91.465 84.957,90.767 L85.038,90.761 C86.035,89.777 87.013,88.766 88.001,87.767 C88.253,87.556 88.477,87.317 88.694,87.071 L88.709,87.069 C89.146,86.779 89.871,85.955 90.164,85.659 C90.932,84.796 91.827,84.085 92.648,83.275 C94.105,81.859 93.499,82.487 94.496,81.42 L94.572,81.419 C94.896,81.216 95.169,80.901 95.439,80.642 C96.314,79.731 97.263,78.911 98.153,78.017 C99.254,76.983 100.395,75.993 101.541,75.008 C101.709,74.862 103.21,73.553 103.56,73.215 C103.58,73.191 103.599,73.167 103.618,73.143 C103.624,73.134 103.63,73.125 103.636,73.116 C106.955,70.385 105.676,71.516 107.555,69.816 L107.58,69.816 C108.05,69.57 108.978,68.713 109.342,68.413 C110.168,67.731 110.991,67.046 111.811,66.358 C112.511,65.711 113.292,65.211 114.031,64.62 C115.068,63.773 116.11,62.936 117.167,62.118 C117.883,61.565 118.605,61.019 119.319,60.462 L119.337,60.445 C121.016,59.179 120.338,59.701 121.382,58.892 L121.393,58.891 C121.897,58.675 121.585,58.824 122.485,58.168 C124.116,56.978 124.413,56.746 125.845,55.658 L126.223,55.375 C126.709,55.161 127.72,54.36 127.958,54.192 C129.042,53.377 130.19,52.674 131.276,51.863 L131.844,51.451 L131.926,51.467 C132.201,51.352 132.417,51.181 132.662,51.011 C133.396,50.504 134.135,50.006 134.869,49.498 C134.872,49.496 134.875,49.494 134.877,49.492 C136.959,48.093 135.985,48.761 137.804,47.493 C138.243,47.292 138.632,46.986 139.038,46.724 C140.621,45.654 142.253,44.684 143.866,43.676 L145.143,42.868 L145.167,42.875 C145.718,42.688 146.169,42.348 146.663,42.046 C149.18,40.518 148.165,41.165 149.733,40.147 z" fill="#FFFFFF" fill-opacity="0.807"/>
    <path d="M284.371,0.345 L284.371,599.607 C283.741,599.616 283.977,599.613 283.663,599.617 L283.65,599.611 C282.93,599.619 283.227,599.616 282.761,599.622 C279.785,599.357 281.178,599.468 278.582,599.28 C277.219,599.185 275.857,599.09 274.498,598.95 L274.346,598.995 L274.264,598.984 C274.059,598.96 272.678,598.83 272.258,598.789 L272.188,598.81 C270.215,598.591 271.237,598.701 269.12,598.482 L269.073,598.496 C267.632,598.327 268.372,598.412 266.854,598.242 L266.811,598.253 L266.726,598.244 C263.792,597.929 265.123,598.083 262.73,597.793 C262.47,597.648 262.129,597.663 261.843,597.638 C260.525,597.489 260.396,597.465 259.258,597.307 C259.083,597.282 258.938,597.261 258.617,597.215 C257.61,597.07 257.134,597.003 256.555,596.929 L256.346,596.985 L254.373,596.642 L254.286,596.663 C251.031,596.221 252.685,596.475 249.324,595.896 C246.584,595.349 246.962,595.424 244.884,595.106 L244.8,595.127 C241.629,594.496 243.044,594.765 240.559,594.306 L240.551,594.307 C232.694,592.513 236.264,593.344 229.839,591.83 L229.721,591.843 C228.217,591.46 229.109,591.681 227.043,591.2 C226.296,591.049 226.81,591.169 225.531,590.728 L225.428,590.734 C224.97,590.612 225.206,590.675 224.721,590.545 C222.64,590.086 220.62,589.511 218.589,588.891 L218.447,588.906 C215.212,587.919 217.091,588.495 212.812,587.173 L212.765,587.177 L212.682,587.154 C212.125,586.969 211.568,586.783 211.01,586.597 L210.899,586.604 C210.45,586.452 210.821,586.578 209.788,586.227 L209.683,586.233 L209.549,586.184 L209.549,13.773 C212.923,12.568 216.394,11.664 219.834,10.671 L219.833,10.669 C226.313,8.992 223.071,9.821 229.56,8.182 C229.566,8.179 229.571,8.176 229.576,8.174 C229.607,8.168 229.637,8.162 229.668,8.156 C235.286,6.96 240.905,5.771 246.524,4.581 L246.527,4.579 C255.555,3.106 264.65,2.087 273.734,1.027 C273.786,1.004 273.842,1.016 273.897,1.011 C273.897,1.011 273.899,1.011 273.899,1.011 C280.086,0.617 276.992,0.814 283.179,0.421 z" fill="#FFFFFF" fill-opacity="0.504"/>
    <path d="M502.901,78.737 C502.939,78.766 502.97,78.794 503.001,78.821 C503.381,79.205 503.652,79.501 504.106,79.872 L504.171,79.894 C510.601,85.903 507.289,82.722 514.09,89.463 C514.624,90.011 515.164,90.553 515.702,91.097 C518.713,94.277 516.925,92.376 521.05,96.816 L521.059,96.835 C521.547,97.421 521.358,97.197 521.628,97.514 C522.532,98.311 523.253,99.254 524.019,100.172 C524.943,101.033 525.727,102.016 526.572,102.953 C527.762,104.285 527.358,103.794 527.836,104.379 L527.836,104.383 C528.033,104.856 528.525,105.476 528.806,105.891 C529.389,106.749 529.96,107.41 530.641,108.218 C530.784,108.388 530.92,108.565 531.07,108.729 C531.112,108.774 531.167,108.806 531.215,108.845 L531.263,108.849 C531.762,109.476 532.248,110.114 532.763,110.728 C533.888,111.914 533.417,111.44 534.156,112.169 L534.151,112.233 C534.377,112.638 534.193,112.333 534.775,113.02 C535.397,113.753 536.019,114.487 536.631,115.228 C537.771,116.726 537.171,115.946 538.434,117.565 C538.442,117.572 538.447,117.582 538.454,117.59 L538.555,117.725 L538.552,117.751 C538.777,118.215 539.274,118.761 539.584,119.168 C540.808,120.794 540.255,120.085 541.229,121.306 L541.207,121.481 C542.021,122.618 542.931,123.701 543.777,124.82 L543.771,124.865 C543.929,125.18 544.18,125.447 544.396,125.723 C544.473,125.823 544.549,125.924 544.625,126.025 C544.644,126.063 544.662,126.1 544.681,126.138 C545.383,127.065 546.057,128.013 546.712,128.975 C546.731,129.003 546.721,128.989 546.741,129.017 C548.119,130.922 549.356,132.905 550.636,134.883 L337.454,189.43 L596.557,254.471 C596.875,256.392 597.167,258.309 597.414,260.238 L597.765,262.773 C597.784,262.981 597.807,263.178 597.838,263.387 C598.191,267.069 597.998,265.447 598.37,268.258 L598.328,268.412 C598.32,268.543 598.357,268.674 598.37,268.805 C598.409,269.198 598.448,269.591 598.487,269.984 C598.726,271.81 598.483,270.018 598.755,271.839 L598.867,272.931 C598.873,272.953 598.876,272.973 598.879,272.994 C598.884,273.059 598.889,273.125 598.895,273.19 C598.92,273.894 598.944,274.594 599.003,275.297 C599.029,275.608 599.066,275.917 599.094,276.228 C599.105,276.348 599.096,276.489 599.13,276.607 L599.139,276.634 C599.29,278.767 599.456,280.899 599.629,283.03 L599.629,283.062 C599.664,283.672 599.701,284.281 599.736,284.891 C599.742,284.976 599.73,285.06 599.722,285.144 C599.702,285.279 599.732,285.416 599.737,285.552 C599.774,285.808 599.759,286.102 599.752,286.364 C599.736,286.457 599.761,286.552 599.766,286.646 C599.772,286.775 599.779,286.904 599.785,287.032 C599.801,287.349 599.817,287.666 599.833,287.983 C599.838,288.077 599.822,288.174 599.847,288.265 L599.85,288.277 L599.847,288.563 C599.873,288.994 599.896,289.425 599.92,289.856 C600.01,290.429 599.991,290.998 600.014,291.57 C600.052,294.264 600.017,292.964 600.111,295.47 C600.115,295.586 600.102,295.709 600.096,295.819 C600.117,296.41 600.181,296.967 600.132,297.547 C600.134,298.115 600.131,297.796 600.147,298.506 C600.156,298.881 600.148,299.255 600.145,299.629 C600.144,299.693 600.144,299.757 600.143,299.821 C600.14,299.833 600.137,299.844 600.134,299.855 C600.137,300.207 600.131,299.971 600.175,300.562 C600.159,300.605 600.147,300.65 600.133,300.694 C600.116,300.792 600.142,300.892 600.146,300.991 C600.152,301.126 600.158,301.261 600.164,301.396 C600.181,301.732 600.229,302.058 600.118,302.375 C600.111,302.527 600.114,302.662 600.115,302.824 L600.108,302.838 C600.086,302.969 600.11,303.105 600.11,303.238 C600.11,303.63 600.11,304.023 600.11,304.416 C600.11,305.035 600.113,305.655 600.116,306.274 C600.116,306.412 600.092,306.551 600.118,306.687 L600.128,306.721 C600.098,307.41 600.069,308.098 600.039,308.787 C600.014,308.879 600.001,309.594 599.994,309.746 C599.987,309.897 599.934,310.611 599.95,310.7 C599.962,311.16 599.929,311.633 599.905,312.094 C599.897,312.472 599.932,312.853 599.847,313.214 C599.822,313.304 599.838,313.4 599.833,313.494 C599.827,313.621 599.82,313.749 599.814,313.877 C599.804,314.064 599.795,314.25 599.785,314.437 C599.779,314.565 599.772,314.692 599.766,314.82 L599.761,315.075 L599.757,315.086 L599.734,315.476 C599.72,315.881 599.701,316.285 599.681,316.69 C599.642,317.614 599.566,318.535 599.495,319.458 C599.486,319.593 599.451,319.73 599.466,319.865 C599.508,320.398 599.431,320.959 599.348,321.493 L75.07,189.229 z" fill="#FFFFFF" fill-opacity="0.801"/>
    <path d="M596.49,254.135 L596.498,254.179 C596.699,255.443 596.631,255.024 596.788,256.109 C597.384,258.418 597.422,260.832 597.796,263.187 C597.996,263.832 597.989,264.503 598.086,265.16 C598.205,266.419 598.307,267.679 598.472,268.933 L598.464,268.943 C598.458,269.053 598.564,269.805 598.583,269.976 C598.641,270.588 598.586,269.84 598.577,270.184 C598.568,270.317 598.606,270.448 598.619,270.578 C598.658,270.972 598.696,271.365 598.736,271.758 C598.785,272.247 598.87,272.731 598.944,273.217 C599.001,274.153 599.102,275.085 599.185,276.018 L599.247,277.069 C599.278,277.381 599.315,277.691 599.343,278.001 C599.354,278.121 599.345,278.263 599.379,278.38 L599.385,278.405 C599.508,280.304 599.722,282.187 599.728,284.088 C599.731,284.712 599.775,285.336 599.807,285.96 C599.814,286.087 599.797,286.219 599.827,286.343 C599.904,286.692 599.858,287.114 599.859,287.482 C599.863,287.901 599.868,288.321 599.872,288.74 C599.874,288.905 599.849,289.073 599.878,289.235 C600.038,289.631 600,290.082 600.027,290.502 C600.064,291.116 600.081,291.732 600.104,292.347 C600.109,292.481 600.09,292.619 600.12,292.751 C600.138,294.963 600.129,293.848 600.148,296.098 C600.151,296.484 600.155,296.869 600.159,297.254 C600.162,297.616 600.132,297.98 600.17,298.34 C600.238,299.282 600.181,300.57 600.178,301.352 L600.137,301.476 C600.106,302.014 600.138,302.553 600.109,303.09 C600.1,303.896 600.175,304.693 600.115,305.497 C600.102,305.906 600.088,306.315 600.076,306.725 L600.079,307.652 C600.064,307.701 600.044,307.749 600.024,307.796 C599.993,307.928 600.011,308.067 600.004,308.203 C599.984,308.59 599.964,308.977 599.945,309.364 C599.914,309.978 599.914,310.594 599.905,311.208 C600.036,312.21 599.957,312.5 599.843,313.853 C599.881,313.866 599.85,313.886 599.853,313.903 L599.851,314.137 C599.843,314.536 599.83,314.933 599.817,315.33 C599.76,316.775 599.786,316.092 599.74,317.38 L599.732,317.446 C599.73,317.518 599.724,317.589 599.718,317.659 C599.496,320.172 599.624,318.834 599.325,321.674 L472.249,354.157 L588.397,383.156 L588.373,383.269 C588.276,383.739 588.276,383.739 588.18,384.208 L588.184,384.233 C587.812,385.498 587.957,385 587.746,385.727 C587.152,387.819 586.467,389.887 585.811,391.965 C585.307,393.402 585.088,394.043 584.828,394.852 C584.815,394.931 584.761,395.044 584.738,395.102 C584.608,395.444 584.503,395.723 584.402,395.991 C583.904,397.297 583.442,398.616 583.027,399.951 L582.983,399.999 C582.918,400.182 582.362,401.724 582.289,401.944 C582.053,402.686 582.215,402.173 581.807,403.487 C581.697,403.77 581.151,405.199 581.077,405.41 C580.696,406.826 580.026,408.131 579.447,409.473 C579.459,409.695 579.346,409.903 579.265,410.104 C579.092,410.583 579.092,410.583 578.918,411.062 C578.48,412.255 577.935,413.434 577.419,414.603 C577.105,415.427 577.316,414.867 576.798,416.287 L576.791,416.301 C576.448,417.038 576.597,416.716 576.343,417.267 C576.085,417.866 575.835,418.469 575.583,419.071 C575.274,420.057 574.772,420.944 574.331,421.866 C574.196,422.23 574.056,422.595 573.919,422.956 L571.965,427.065 C571.83,427.328 571.699,427.593 571.568,427.857 C570.577,430.165 569.424,432.403 568.296,434.651 C568.176,434.863 567.384,436.353 567.238,436.626 C567.056,436.942 566.88,437.274 566.713,437.603 L566.73,437.693 C566.539,438.094 566.279,438.455 566.083,438.859 L566.084,438.874 C565.75,439.47 565.845,439.219 565.723,439.593 C565.576,439.84 565.665,439.693 565.458,440.037 C565.333,440.253 564.511,441.778 564.38,442.02 L564.321,442.197 L564.324,442.205 L563.775,443.048 L209.543,353.957 z" fill="#FFFFFF" fill-opacity="0.508"/>
  </g>
  <defs/>
</svg>
