<?xml version="1.0" encoding="UTF-8"?>
<!DOCTYPE svg PUBLIC "-//W3C//DTD SVG 1.1//EN" "http://www.w3.org/Graphics/SVG/1.1/DTD/svg11.dtd">
<svg version="1.1" xmlns="http://www.w3.org/2000/svg" xmlns:xlink="http://www.w3.org/1999/xlink" x="0px" y="0px" width="75" height="75" viewBox="0, 0, 75, 75">
  <g id="Layer_2">
    <g>
      <path d="M37.649,0.5 C50.339,0.558 62.086,6.924 68.947,17.627 C72.842,23.702 74.709,30.459 74.8,37.65 C74.8,58.167 58.167,74.8 37.649,74.8 C26.258,74.774 15.464,69.549 8.421,60.586 C2.702,53.308 -0.094,44.015 0.606,34.792 C1.58,21.959 9.286,10.427 20.736,4.564 C24.539,2.616 28.677,1.337 32.917,0.798 C34.587,0.587 35.006,0.597 36.69,0.512 z" fill="#000000"/>
      <path d="M37.649,0.5 C50.339,0.558 62.086,6.924 68.947,17.627 C72.842,23.702 74.709,30.459 74.8,37.65 C74.8,58.167 58.167,74.8 37.649,74.8 C26.258,74.774 15.464,69.549 8.421,60.586 C2.702,53.308 -0.094,44.015 0.606,34.792 C1.58,21.959 9.286,10.427 20.736,4.564 C24.539,2.616 28.677,1.337 32.917,0.798 C34.587,0.587 35.006,0.597 36.69,0.512 z" fill-opacity="0" stroke="#000000" stroke-width="0.117"/>
    </g>
    <path d="M18.751,5.018 L18.751,69.963 C18.602,69.891 18.463,69.803 18.322,69.715 C18.248,69.653 18.144,69.629 18.072,69.566 C17.998,69.523 17.935,69.484 17.811,69.408 C17.796,69.399 17.796,69.399 17.781,69.39 C17.652,69.318 17.532,69.243 17.416,69.154 C17.409,69.15 17.402,69.147 17.395,69.144 L17.394,69.144 C17.332,69.106 17.27,69.067 17.209,69.029 C17.184,69.013 17.011,68.903 16.971,68.878 C16.923,68.86 16.877,68.821 16.837,68.794 C16.816,68.78 16.816,68.78 16.795,68.766 C16.655,68.673 16.516,68.579 16.374,68.49 L16.371,68.48 L16.354,68.464 C16.213,68.377 16.1,68.301 15.855,68.132 C15.852,68.13 15.852,68.13 15.85,68.128 L15.772,68.074 L15.769,68.072 L15.767,68.061 C15.551,67.867 15.104,67.649 14.921,67.449 C14.608,67.221 14.306,66.979 14.005,66.736 L14.004,66.732 C13.967,66.69 13.997,66.721 13.914,66.657 C13.776,66.552 13.746,66.528 13.621,66.431 C13.621,66.43 13.62,66.43 13.62,66.43 C13.528,66.365 13.445,66.291 13.36,66.218 C13.24,66.11 13.119,66.002 12.991,65.903 L12.99,65.9 C12.965,65.868 12.93,65.844 12.898,65.818 L12.898,65.817 C12.798,65.718 12.687,65.625 12.577,65.535 L12.577,65.53 L12.563,65.511 L12.369,65.335 L12.359,65.323 C12.279,65.256 12.214,65.2 12.073,65.08 C12.071,65.078 12.069,65.076 12.067,65.074 C12.051,65.061 12.035,65.048 12.02,65.034 L12.019,65.027 C11.981,64.975 11.85,64.865 11.791,64.81 C11.579,64.616 11.663,64.691 11.54,64.583 L11.539,64.572 C11.51,64.531 11.53,64.556 11.466,64.496 C11.356,64.393 11.334,64.374 11.234,64.282 C11.225,64.274 11.23,64.278 11.221,64.27 L11.082,64.141 L11.076,64.133 C10.717,63.766 10.895,63.951 10.54,63.579 C10.492,63.528 10.446,63.474 10.398,63.424 C10.392,63.418 10.385,63.414 10.379,63.41 L10.377,63.41 C10.33,63.358 10.28,63.309 10.232,63.258 L10.229,63.256 C10.172,63.193 10.116,63.131 10.058,63.069 L9.983,62.993 C9.958,62.954 9.921,62.923 9.889,62.89 L9.879,62.879 L9.879,62.878 C9.808,62.79 9.854,62.845 9.732,62.721 C9.708,62.693 9.684,62.664 9.659,62.637 C9.615,62.586 9.572,62.531 9.525,62.484 C9.462,62.433 9.515,62.477 9.385,62.335 L9.385,12.686 C9.456,12.589 9.54,12.503 9.622,12.415 C9.713,12.309 9.813,12.213 9.905,12.109 C10.015,11.989 9.995,12.01 10.098,11.898 C10.206,11.782 10.157,11.836 10.247,11.735 C10.313,11.671 10.376,11.604 10.438,11.535 C10.598,11.369 10.538,11.433 10.62,11.346 L10.63,11.345 C10.754,11.222 10.877,11.096 11,10.971 C11.032,10.944 11.06,10.915 11.087,10.884 L11.089,10.884 C11.143,10.847 11.234,10.744 11.27,10.707 C11.367,10.599 11.478,10.511 11.581,10.409 C11.763,10.232 11.687,10.311 11.812,10.177 L11.822,10.177 C11.862,10.152 11.896,10.113 11.93,10.08 C12.039,9.966 12.158,9.864 12.269,9.752 C12.407,9.623 12.549,9.499 12.693,9.376 C12.714,9.358 12.901,9.194 12.945,9.152 C12.947,9.149 12.95,9.146 12.952,9.143 C12.953,9.142 12.954,9.141 12.955,9.14 C13.369,8.798 13.21,8.94 13.444,8.727 L13.447,8.727 C13.506,8.696 13.622,8.589 13.668,8.552 C13.771,8.466 13.874,8.381 13.976,8.295 C14.064,8.214 14.162,8.151 14.254,8.078 C14.384,7.972 14.514,7.867 14.646,7.765 C14.735,7.696 14.826,7.627 14.915,7.558 L14.917,7.556 C15.127,7.397 15.042,7.463 15.173,7.361 L15.174,7.361 C15.237,7.334 15.198,7.353 15.311,7.271 C15.514,7.122 15.552,7.093 15.731,6.957 L15.778,6.922 C15.839,6.895 15.965,6.795 15.995,6.774 C16.13,6.672 16.274,6.584 16.41,6.483 L16.48,6.431 L16.491,6.433 C16.525,6.419 16.552,6.398 16.583,6.376 C16.674,6.313 16.767,6.251 16.859,6.187 C16.859,6.187 16.859,6.187 16.86,6.187 C17.12,6.012 16.998,6.095 17.225,5.937 C17.28,5.912 17.329,5.873 17.38,5.84 C17.578,5.707 17.782,5.586 17.983,5.46 L18.143,5.359 L18.146,5.359 C18.215,5.336 18.271,5.294 18.333,5.256 C18.647,5.065 18.521,5.146 18.717,5.018 z" fill="#FFFFFF" fill-opacity="0.807"/>
    <path d="M35.546,0.043 L35.546,74.951 C35.468,74.952 35.497,74.952 35.458,74.952 L35.456,74.951 C35.366,74.952 35.403,74.952 35.345,74.953 C34.973,74.92 35.147,74.933 34.823,74.91 C34.652,74.898 34.482,74.886 34.312,74.869 L34.293,74.874 L34.283,74.873 C34.257,74.87 34.085,74.854 34.032,74.849 L34.024,74.851 C33.777,74.824 33.905,74.838 33.64,74.81 L33.634,74.812 C33.454,74.791 33.547,74.802 33.357,74.78 L33.351,74.782 L33.341,74.78 C32.974,74.741 33.14,74.76 32.841,74.724 C32.809,74.706 32.766,74.708 32.73,74.705 C32.566,74.686 32.549,74.683 32.407,74.663 C32.385,74.66 32.367,74.658 32.327,74.652 C32.201,74.634 32.142,74.625 32.069,74.616 L32.043,74.623 L31.797,74.58 L31.786,74.583 C31.379,74.528 31.586,74.559 31.165,74.487 C30.823,74.419 30.87,74.428 30.61,74.388 L30.6,74.391 C30.204,74.312 30.38,74.346 30.07,74.288 L30.069,74.288 C29.087,74.064 29.533,74.168 28.73,73.979 L28.715,73.98 C28.527,73.933 28.639,73.96 28.38,73.9 C28.287,73.881 28.351,73.896 28.191,73.841 L28.178,73.842 C28.121,73.826 28.151,73.834 28.09,73.818 C27.83,73.761 27.578,73.689 27.324,73.611 L27.306,73.613 C26.901,73.49 27.136,73.562 26.602,73.397 L26.596,73.397 L26.585,73.394 C26.516,73.371 26.446,73.348 26.376,73.325 L26.362,73.325 C26.306,73.306 26.353,73.322 26.224,73.278 L26.21,73.279 L26.194,73.273 L26.194,1.722 C26.615,1.571 27.049,1.458 27.479,1.334 L27.479,1.334 C28.289,1.124 27.884,1.228 28.695,1.023 C28.696,1.022 28.696,1.022 28.697,1.022 C28.701,1.021 28.705,1.02 28.708,1.019 C29.411,0.87 30.113,0.721 30.815,0.573 L30.816,0.572 C31.944,0.388 33.081,0.261 34.217,0.128 C34.223,0.125 34.23,0.127 34.237,0.126 C34.237,0.126 34.237,0.126 34.237,0.126 C35.011,0.077 34.624,0.102 35.397,0.053 z" fill="#FFFFFF" fill-opacity="0.504"/>
    <path d="M62.863,9.842 C62.867,9.846 62.871,9.849 62.875,9.853 C62.923,9.901 62.957,9.938 63.013,9.984 L63.021,9.987 C63.825,10.738 63.411,10.34 64.261,11.183 C64.328,11.251 64.396,11.319 64.463,11.387 C64.839,11.785 64.616,11.547 65.131,12.102 L65.132,12.104 C65.193,12.178 65.17,12.15 65.204,12.189 C65.316,12.289 65.407,12.407 65.502,12.521 C65.618,12.629 65.716,12.752 65.821,12.869 C65.97,13.036 65.92,12.974 65.98,13.047 L65.979,13.048 C66.004,13.107 66.066,13.185 66.101,13.236 C66.174,13.344 66.245,13.426 66.33,13.527 C66.348,13.549 66.365,13.571 66.384,13.591 C66.389,13.597 66.396,13.601 66.402,13.606 L66.408,13.606 C66.47,13.685 66.531,13.764 66.595,13.841 C66.736,13.989 66.677,13.93 66.769,14.021 L66.769,14.029 C66.797,14.08 66.774,14.042 66.847,14.127 C66.925,14.219 67.002,14.311 67.079,14.404 C67.221,14.591 67.146,14.493 67.304,14.696 C67.305,14.697 67.306,14.698 67.307,14.699 L67.319,14.716 L67.319,14.719 C67.347,14.777 67.409,14.845 67.448,14.896 C67.601,15.099 67.532,15.011 67.654,15.163 L67.651,15.185 C67.753,15.327 67.866,15.463 67.972,15.603 L67.971,15.608 C67.991,15.648 68.023,15.681 68.05,15.715 C68.059,15.728 68.069,15.741 68.078,15.753 C68.081,15.758 68.083,15.763 68.085,15.767 C68.173,15.883 68.257,16.002 68.339,16.122 C68.341,16.125 68.34,16.124 68.343,16.127 C68.515,16.365 68.669,16.613 68.83,16.86 L42.182,23.679 L74.57,31.809 C74.609,32.049 74.646,32.289 74.677,32.53 L74.721,32.847 C74.723,32.873 74.726,32.897 74.73,32.923 C74.774,33.384 74.75,33.181 74.796,33.532 L74.791,33.551 C74.79,33.568 74.795,33.584 74.796,33.601 C74.801,33.65 74.806,33.699 74.811,33.748 C74.841,33.976 74.81,33.752 74.844,33.98 L74.858,34.116 C74.859,34.119 74.86,34.122 74.86,34.124 C74.86,34.132 74.861,34.141 74.862,34.149 C74.865,34.237 74.868,34.324 74.875,34.412 C74.879,34.451 74.883,34.49 74.887,34.529 C74.888,34.544 74.887,34.561 74.891,34.576 L74.892,34.579 C74.911,34.846 74.932,35.112 74.954,35.379 L74.954,35.383 C74.958,35.459 74.963,35.535 74.967,35.611 C74.968,35.622 74.966,35.632 74.965,35.643 C74.963,35.66 74.967,35.677 74.967,35.694 C74.972,35.726 74.97,35.763 74.969,35.795 C74.967,35.807 74.97,35.819 74.971,35.831 C74.972,35.847 74.972,35.863 74.973,35.879 C74.975,35.919 74.977,35.958 74.979,35.998 C74.98,36.01 74.978,36.022 74.981,36.033 L74.981,36.035 L74.981,36.07 C74.984,36.124 74.987,36.178 74.99,36.232 C75.001,36.304 74.999,36.375 75.002,36.446 C75.006,36.783 75.002,36.621 75.014,36.934 C75.014,36.948 75.013,36.964 75.012,36.977 C75.015,37.051 75.023,37.121 75.017,37.193 C75.017,37.264 75.016,37.225 75.018,37.313 C75.02,37.36 75.018,37.407 75.018,37.454 C75.018,37.462 75.018,37.47 75.018,37.478 C75.018,37.479 75.017,37.48 75.017,37.482 C75.017,37.526 75.016,37.496 75.022,37.57 C75.02,37.576 75.018,37.581 75.017,37.587 C75.015,37.599 75.018,37.611 75.018,37.624 C75.019,37.641 75.02,37.658 75.021,37.675 C75.023,37.716 75.029,37.757 75.015,37.797 C75.014,37.816 75.014,37.833 75.014,37.853 L75.013,37.855 C75.011,37.871 75.014,37.888 75.014,37.905 C75.014,37.954 75.014,38.003 75.014,38.052 C75.014,38.129 75.014,38.207 75.015,38.284 C75.015,38.301 75.012,38.319 75.015,38.336 L75.016,38.34 C75.012,38.426 75.009,38.512 75.005,38.598 C75.002,38.61 75,38.699 74.999,38.718 C74.998,38.737 74.992,38.826 74.994,38.838 C74.995,38.895 74.991,38.954 74.988,39.012 C74.987,39.059 74.992,39.107 74.981,39.152 C74.978,39.163 74.98,39.175 74.979,39.187 C74.978,39.203 74.978,39.219 74.977,39.235 C74.976,39.258 74.974,39.281 74.973,39.305 C74.972,39.321 74.972,39.337 74.971,39.353 L74.97,39.384 L74.97,39.386 L74.967,39.434 C74.965,39.485 74.963,39.536 74.96,39.586 C74.955,39.702 74.946,39.817 74.937,39.932 C74.936,39.949 74.931,39.966 74.933,39.983 C74.939,40.05 74.929,40.12 74.919,40.187 L9.384,23.654 z" fill="#FFFFFF" fill-opacity="0.801"/>
    <path d="M74.561,31.767 L74.562,31.772 C74.587,31.93 74.579,31.878 74.599,32.014 C74.673,32.302 74.678,32.604 74.725,32.898 C74.75,32.979 74.749,33.063 74.761,33.145 C74.776,33.302 74.788,33.46 74.809,33.617 L74.808,33.618 C74.807,33.632 74.82,33.726 74.823,33.747 C74.83,33.823 74.823,33.73 74.822,33.773 C74.821,33.79 74.826,33.806 74.827,33.822 C74.832,33.871 74.837,33.921 74.842,33.97 C74.848,34.031 74.859,34.091 74.868,34.152 C74.875,34.269 74.888,34.386 74.898,34.502 L74.906,34.634 C74.91,34.673 74.914,34.711 74.918,34.75 C74.919,34.765 74.918,34.783 74.922,34.798 L74.923,34.801 C74.938,35.038 74.965,35.273 74.966,35.511 C74.966,35.589 74.972,35.667 74.976,35.745 C74.977,35.761 74.975,35.777 74.978,35.793 C74.988,35.837 74.982,35.889 74.982,35.935 C74.983,35.988 74.984,36.04 74.984,36.093 C74.984,36.113 74.981,36.134 74.985,36.154 C75.005,36.204 75,36.26 75.003,36.313 C75.008,36.39 75.01,36.466 75.013,36.543 C75.014,36.56 75.011,36.577 75.015,36.594 C75.017,36.87 75.016,36.731 75.018,37.012 C75.019,37.06 75.019,37.109 75.02,37.157 C75.02,37.202 75.016,37.248 75.021,37.293 C75.03,37.41 75.023,37.571 75.022,37.669 L75.017,37.685 C75.013,37.752 75.017,37.819 75.014,37.886 C75.013,37.987 75.022,38.087 75.014,38.187 C75.013,38.238 75.011,38.289 75.009,38.341 L75.01,38.456 C75.008,38.463 75.006,38.469 75.003,38.475 C74.999,38.491 75.001,38.508 75,38.525 C74.998,38.574 74.996,38.622 74.993,38.671 C74.989,38.747 74.989,38.824 74.988,38.901 C75.004,39.026 74.995,39.063 74.98,39.232 C74.985,39.233 74.981,39.236 74.982,39.238 L74.981,39.267 C74.98,39.317 74.979,39.367 74.977,39.416 C74.97,39.597 74.973,39.511 74.968,39.672 L74.966,39.681 C74.966,39.69 74.966,39.699 74.965,39.707 C74.937,40.022 74.953,39.854 74.916,40.209 L59.031,44.27 L73.55,47.894 L73.547,47.909 C73.535,47.967 73.535,47.967 73.522,48.026 L73.523,48.029 C73.477,48.187 73.495,48.125 73.468,48.216 C73.394,48.477 73.308,48.736 73.226,48.996 C73.163,49.175 73.136,49.255 73.104,49.356 C73.102,49.366 73.095,49.381 73.092,49.388 C73.076,49.431 73.063,49.465 73.05,49.499 C72.988,49.662 72.93,49.827 72.878,49.994 L72.873,50 C72.865,50.023 72.795,50.216 72.786,50.243 C72.757,50.336 72.777,50.272 72.726,50.436 C72.712,50.471 72.644,50.65 72.635,50.676 C72.587,50.853 72.503,51.016 72.431,51.184 C72.432,51.212 72.418,51.238 72.408,51.263 C72.386,51.323 72.386,51.323 72.365,51.383 C72.31,51.532 72.242,51.679 72.177,51.825 C72.138,51.928 72.165,51.858 72.1,52.036 L72.099,52.038 C72.056,52.13 72.075,52.09 72.043,52.158 C72.011,52.233 71.979,52.309 71.948,52.384 C71.909,52.507 71.847,52.618 71.791,52.733 C71.775,52.779 71.757,52.824 71.74,52.87 L71.496,53.383 C71.479,53.416 71.462,53.449 71.446,53.482 C71.322,53.771 71.178,54.05 71.037,54.331 C71.022,54.358 70.923,54.544 70.905,54.578 C70.882,54.618 70.86,54.659 70.839,54.7 L70.841,54.712 C70.817,54.762 70.785,54.807 70.76,54.857 L70.761,54.859 C70.719,54.934 70.731,54.902 70.715,54.949 C70.697,54.98 70.708,54.962 70.682,55.005 C70.667,55.032 70.564,55.222 70.547,55.253 L70.54,55.275 L70.541,55.276 L70.472,55.381 L26.193,44.245 z" fill="#FFFFFF" fill-opacity="0.508"/>
  </g>
  <defs/>
</svg>
