<?xml version="1.0" encoding="UTF-8"?>
<!DOCTYPE svg PUBLIC "-//W3C//DTD SVG 1.1//EN" "http://www.w3.org/Graphics/SVG/1.1/DTD/svg11.dtd">
<svg version="1.1" xmlns="http://www.w3.org/2000/svg" xmlns:xlink="http://www.w3.org/1999/xlink" x="0px" y="0px" width="300.001" height="300.001" viewBox="0, 0, 300.001, 300.001">
  <g id="Layer_2">
    <g>
      <path d="M150.266,0.5 C201.424,0.735 248.781,26.397 276.439,69.544 C292.138,94.035 299.666,121.275 300.033,150.266 C300.033,232.98 232.98,300.033 150.266,300.033 C104.348,299.927 60.835,278.862 32.443,242.73 C9.389,213.392 -1.885,175.928 0.937,138.743 C4.863,87.008 35.93,40.52 82.085,16.884 C97.419,9.032 114.1,3.873 131.192,1.703 C137.922,0.849 139.614,0.892 146.401,0.549 z" fill="#000000"/>
      <path d="M150.266,0.5 C201.424,0.735 248.781,26.397 276.439,69.544 C292.138,94.035 299.666,121.275 300.033,150.266 C300.033,232.98 232.98,300.033 150.266,300.033 C104.348,299.927 60.835,278.862 32.443,242.73 C9.389,213.392 -1.885,175.928 0.937,138.743 C4.863,87.008 35.93,40.52 82.085,16.884 C97.419,9.032 114.1,3.873 131.192,1.703 C137.922,0.849 139.614,0.892 146.401,0.549 z" fill-opacity="0" stroke="#000000" stroke-width="0.468"/>
    </g>
    <path d="M75.036,20.073 L75.036,280.073 C74.438,279.785 73.882,279.431 73.319,279.081 C73.023,278.834 72.605,278.737 72.318,278.482 C72.022,278.31 71.769,278.157 71.272,277.853 C71.212,277.816 71.212,277.816 71.153,277.78 C70.635,277.491 70.157,277.191 69.69,276.836 C69.665,276.818 69.635,276.808 69.607,276.794 L69.601,276.795 C69.355,276.641 69.109,276.487 68.862,276.333 C68.764,276.271 68.069,275.831 67.91,275.731 C67.717,275.656 67.534,275.503 67.372,275.394 C67.288,275.338 67.288,275.338 67.205,275.283 C66.645,274.91 66.087,274.534 65.518,274.175 L65.509,274.136 L65.441,274.073 C64.873,273.722 64.423,273.419 63.443,272.741 C63.432,272.734 63.432,272.734 63.421,272.727 L63.111,272.512 L63.097,272.502 L63.088,272.458 C62.224,271.68 60.436,270.809 59.703,270.008 C58.449,269.097 57.242,268.125 56.035,267.154 L56.033,267.136 C55.885,266.971 56.005,267.096 55.67,266.839 C55.12,266.417 54.998,266.321 54.499,265.932 C54.497,265.931 54.496,265.93 54.495,265.929 C54.128,265.671 53.796,265.371 53.455,265.08 C52.972,264.648 52.489,264.216 51.975,263.82 L51.974,263.807 C51.873,263.678 51.731,263.583 51.605,263.479 L51.605,263.476 C51.204,263.077 50.759,262.706 50.319,262.344 L50.318,262.325 L50.263,262.25 L49.485,261.545 L49.447,261.497 C49.127,261.228 48.866,261.006 48.301,260.523 C48.293,260.516 48.285,260.509 48.276,260.502 C48.214,260.449 48.151,260.395 48.088,260.342 L48.087,260.313 C47.932,260.103 47.408,259.664 47.171,259.444 C46.323,258.668 46.662,258.967 46.166,258.535 L46.165,258.489 C46.049,258.326 46.128,258.427 45.871,258.188 C45.429,257.776 45.344,257.698 44.942,257.33 C44.906,257.297 44.924,257.313 44.888,257.28 L44.332,256.767 L44.31,256.733 C42.871,255.264 43.586,256.003 42.165,254.516 C41.973,254.31 41.788,254.097 41.594,253.893 C41.573,253.871 41.544,253.856 41.519,253.838 L41.51,253.837 C41.324,253.629 41.123,253.433 40.93,253.231 L40.92,253.221 C40.691,252.972 40.465,252.72 40.233,252.473 L39.934,252.17 C39.834,252.013 39.685,251.888 39.556,251.757 L39.516,251.714 L39.516,251.71 C39.232,251.358 39.419,251.576 38.929,251.08 C38.833,250.967 38.738,250.852 38.637,250.742 C38.461,250.542 38.29,250.32 38.1,250.132 C37.85,249.927 38.059,250.103 37.539,249.535 L37.539,50.771 C37.824,50.381 38.161,50.039 38.488,49.685 C38.852,49.261 39.252,48.876 39.621,48.46 C40.061,47.98 39.984,48.064 40.396,47.614 C40.827,47.151 40.629,47.368 40.991,46.964 C41.255,46.706 41.508,46.437 41.755,46.162 C42.397,45.499 42.158,45.754 42.483,45.405 L42.523,45.402 C43.022,44.91 43.512,44.404 44.006,43.904 C44.132,43.798 44.244,43.679 44.353,43.556 L44.36,43.554 C44.579,43.409 44.942,42.997 45.088,42.849 C45.473,42.417 45.921,42.061 46.331,41.656 C47.061,40.947 46.757,41.262 47.256,40.728 L47.294,40.727 C47.456,40.625 47.593,40.468 47.728,40.338 C48.166,39.882 48.641,39.472 49.086,39.025 C49.638,38.507 50.209,38.012 50.782,37.519 C50.866,37.446 51.617,36.791 51.792,36.622 C51.802,36.61 51.812,36.598 51.821,36.586 C51.824,36.581 51.827,36.577 51.83,36.572 C53.491,35.205 52.851,35.772 53.791,34.921 L53.804,34.921 C54.039,34.798 54.504,34.369 54.686,34.218 C55.099,33.877 55.511,33.535 55.921,33.19 C56.272,32.867 56.662,32.616 57.032,32.321 C57.551,31.897 58.072,31.478 58.601,31.069 C58.96,30.792 59.321,30.519 59.678,30.24 L59.687,30.231 C60.528,29.598 60.188,29.859 60.711,29.454 L60.716,29.454 C60.969,29.345 60.812,29.42 61.263,29.092 C62.079,28.496 62.227,28.38 62.944,27.836 L63.133,27.694 C63.377,27.587 63.883,27.186 64.001,27.102 C64.544,26.694 65.119,26.343 65.662,25.937 L65.946,25.73 L65.987,25.738 C66.125,25.681 66.233,25.595 66.356,25.51 C66.723,25.256 67.093,25.007 67.46,24.753 C67.461,24.752 67.463,24.751 67.464,24.75 C68.506,24.05 68.018,24.384 68.929,23.75 C69.148,23.649 69.343,23.496 69.546,23.365 C70.338,22.829 71.155,22.344 71.962,21.84 L72.601,21.436 L72.614,21.439 C72.889,21.345 73.115,21.175 73.362,21.024 C74.621,20.259 74.114,20.583 74.898,20.074 z" fill="#FFFFFF" fill-opacity="0.807"/>
    <path d="M142.185,0.172 L142.185,300.065 C141.87,300.07 141.988,300.068 141.832,300.07 L141.825,300.067 C141.465,300.072 141.613,300.07 141.381,300.072 C139.892,299.94 140.589,299.996 139.291,299.902 C138.61,299.854 137.928,299.806 137.249,299.737 L137.173,299.759 L137.132,299.753 C137.03,299.741 136.339,299.677 136.129,299.656 L136.094,299.666 C135.107,299.557 135.619,299.612 134.56,299.502 L134.536,299.509 C133.816,299.425 134.186,299.467 133.427,299.382 L133.405,299.388 L133.363,299.383 C131.896,299.225 132.562,299.302 131.365,299.157 C131.235,299.085 131.064,299.092 130.921,299.08 C130.262,299.005 130.198,298.993 129.629,298.914 C129.541,298.902 129.469,298.891 129.308,298.868 C128.805,298.796 128.567,298.762 128.277,298.725 L128.173,298.753 L127.186,298.581 L127.143,298.592 C125.515,298.371 126.343,298.498 124.662,298.208 C123.292,297.934 123.481,297.972 122.442,297.813 L122.4,297.823 C120.814,297.507 121.522,297.642 120.279,297.412 L120.275,297.413 C116.347,296.515 118.132,296.931 114.919,296.173 L114.861,296.18 C114.109,295.988 114.554,296.099 113.522,295.858 C113.148,295.783 113.405,295.842 112.766,295.622 L112.714,295.625 C112.485,295.564 112.603,295.595 112.36,295.53 C111.32,295.3 110.31,295.013 109.294,294.702 L109.223,294.71 C107.606,294.216 108.546,294.504 106.406,293.843 L106.383,293.845 L106.341,293.833 C106.063,293.741 105.784,293.648 105.505,293.555 L105.45,293.558 C105.225,293.482 105.411,293.545 104.894,293.37 L104.841,293.372 L104.774,293.348 L104.774,6.893 C106.462,6.289 108.197,5.837 109.917,5.34 L109.917,5.339 C113.157,4.5 111.535,4.915 114.78,4.094 C114.783,4.093 114.785,4.092 114.788,4.09 C114.803,4.087 114.819,4.084 114.834,4.081 C117.643,3.483 120.452,2.888 123.262,2.292 L123.263,2.292 C127.778,1.554 132.325,1.044 136.867,0.514 C136.893,0.502 136.921,0.508 136.948,0.506 C136.948,0.506 136.949,0.506 136.949,0.506 C140.043,0.309 138.496,0.407 141.59,0.21 z" fill="#FFFFFF" fill-opacity="0.504"/>
    <path d="M251.565,39.369 C251.584,39.383 251.6,39.397 251.615,39.411 C251.805,39.603 251.941,39.751 252.168,39.936 L252.201,39.947 C255.417,42.953 253.761,41.362 257.163,44.734 C257.43,45.009 257.7,45.28 257.969,45.552 C259.475,47.143 258.581,46.192 260.645,48.413 L260.649,48.422 C260.893,48.715 260.798,48.603 260.934,48.762 C261.386,49.161 261.747,49.633 262.13,50.092 C262.592,50.523 262.984,51.014 263.407,51.483 C264.002,52.149 263.8,51.904 264.04,52.197 L264.039,52.199 C264.138,52.435 264.384,52.745 264.525,52.953 C264.816,53.382 265.102,53.712 265.443,54.117 C265.514,54.202 265.582,54.29 265.657,54.372 C265.678,54.395 265.706,54.411 265.73,54.431 L265.754,54.433 C266.004,54.746 266.246,55.066 266.504,55.373 C267.067,55.966 266.832,55.729 267.201,56.094 L267.198,56.125 C267.312,56.328 267.219,56.175 267.511,56.519 C267.822,56.886 268.133,57.253 268.44,57.624 C269.009,58.373 268.709,57.983 269.341,58.793 C269.345,58.796 269.348,58.801 269.351,58.806 L269.402,58.873 L269.4,58.886 C269.513,59.118 269.762,59.391 269.917,59.595 C270.529,60.408 270.252,60.054 270.739,60.665 L270.729,60.752 C271.136,61.321 271.591,61.862 272.014,62.422 L272.011,62.445 C272.09,62.603 272.216,62.736 272.324,62.874 C272.362,62.924 272.4,62.975 272.439,63.025 C272.448,63.044 272.457,63.063 272.466,63.082 C272.818,63.546 273.155,64.02 273.482,64.501 C273.492,64.515 273.487,64.508 273.497,64.522 C274.186,65.475 274.805,66.467 275.446,67.457 L168.798,94.745 L298.419,127.283 C298.577,128.243 298.723,129.202 298.847,130.168 L299.023,131.436 C299.032,131.54 299.044,131.638 299.059,131.743 C299.236,133.585 299.139,132.773 299.325,134.18 L299.304,134.257 C299.3,134.323 299.319,134.388 299.326,134.453 C299.345,134.65 299.364,134.847 299.384,135.043 C299.504,135.957 299.382,135.06 299.518,135.971 L299.574,136.518 C299.577,136.528 299.579,136.539 299.58,136.549 C299.582,136.582 299.585,136.615 299.588,136.647 C299.601,136.999 299.612,137.35 299.642,137.701 C299.655,137.857 299.674,138.012 299.688,138.167 C299.693,138.227 299.689,138.298 299.706,138.356 L299.71,138.37 C299.786,139.437 299.869,140.504 299.955,141.57 L299.955,141.586 C299.973,141.891 299.991,142.196 300.009,142.501 C300.012,142.543 300.006,142.585 300.002,142.628 C299.992,142.695 300.007,142.764 300.009,142.832 C300.028,142.96 300.02,143.107 300.017,143.238 C300.009,143.284 300.021,143.332 300.024,143.379 C300.027,143.443 300.03,143.508 300.033,143.572 C300.041,143.731 300.049,143.889 300.057,144.048 C300.06,144.095 300.052,144.143 300.064,144.189 L300.066,144.195 L300.064,144.338 C300.077,144.554 300.089,144.769 300.101,144.984 C300.146,145.271 300.136,145.556 300.148,145.842 C300.167,147.19 300.149,146.539 300.196,147.793 C300.198,147.851 300.192,147.912 300.189,147.968 C300.199,148.263 300.232,148.542 300.207,148.832 C300.208,149.117 300.206,148.957 300.214,149.312 C300.219,149.499 300.215,149.687 300.213,149.874 C300.213,149.906 300.213,149.938 300.213,149.97 C300.211,149.976 300.209,149.981 300.208,149.987 C300.209,150.163 300.206,150.045 300.228,150.34 C300.22,150.362 300.214,150.385 300.207,150.407 C300.199,150.455 300.212,150.505 300.214,150.555 C300.217,150.623 300.22,150.69 300.223,150.758 C300.231,150.926 300.255,151.089 300.2,151.248 C300.196,151.324 300.198,151.391 300.198,151.472 L300.195,151.479 C300.184,151.545 300.196,151.612 300.196,151.679 C300.196,151.876 300.196,152.072 300.196,152.269 C300.196,152.578 300.198,152.888 300.199,153.198 C300.199,153.267 300.187,153.337 300.2,153.404 L300.205,153.422 C300.19,153.766 300.175,154.111 300.161,154.455 C300.148,154.501 300.141,154.859 300.138,154.935 C300.134,155.01 300.108,155.368 300.116,155.412 C300.122,155.642 300.106,155.879 300.094,156.11 C300.09,156.299 300.107,156.489 300.064,156.67 C300.052,156.715 300.06,156.763 300.057,156.81 C300.054,156.874 300.051,156.938 300.048,157.001 C300.043,157.095 300.038,157.188 300.033,157.282 C300.03,157.346 300.027,157.41 300.024,157.473 L300.021,157.601 L300.019,157.607 L300.008,157.801 C300.001,158.004 299.991,158.206 299.981,158.409 C299.962,158.871 299.924,159.332 299.888,159.793 C299.884,159.861 299.866,159.93 299.874,159.997 C299.895,160.264 299.856,160.545 299.815,160.812 L37.535,94.644 z" fill="#FFFFFF" fill-opacity="0.801"/>
    <path d="M298.611,127.068 L298.615,127.089 C298.716,127.723 298.682,127.513 298.761,128.056 C299.059,129.213 299.078,130.422 299.266,131.602 C299.366,131.925 299.362,132.261 299.411,132.591 C299.47,133.221 299.522,133.852 299.604,134.48 L299.6,134.486 C299.597,134.541 299.65,134.917 299.66,135.003 C299.689,135.309 299.661,134.935 299.657,135.107 C299.652,135.174 299.671,135.239 299.678,135.305 C299.697,135.502 299.716,135.699 299.736,135.896 C299.761,136.141 299.804,136.383 299.841,136.627 C299.869,137.095 299.92,137.562 299.961,138.03 L299.992,138.556 C300.008,138.713 300.027,138.868 300.041,139.023 C300.046,139.083 300.041,139.154 300.059,139.213 L300.061,139.225 C300.123,140.177 300.23,141.12 300.233,142.072 C300.235,142.385 300.257,142.698 300.273,143.01 C300.276,143.074 300.268,143.14 300.283,143.202 C300.321,143.377 300.298,143.588 300.299,143.773 C300.301,143.983 300.304,144.193 300.306,144.403 C300.307,144.486 300.294,144.569 300.308,144.651 C300.388,144.849 300.37,145.075 300.383,145.285 C300.402,145.593 300.41,145.901 300.422,146.209 C300.424,146.277 300.415,146.346 300.429,146.412 C300.439,147.52 300.434,146.962 300.444,148.089 C300.445,148.282 300.447,148.475 300.449,148.668 C300.451,148.849 300.436,149.032 300.455,149.212 C300.489,149.683 300.46,150.329 300.459,150.72 L300.438,150.783 C300.422,151.052 300.439,151.323 300.424,151.591 C300.42,151.995 300.458,152.394 300.427,152.797 C300.421,153.002 300.414,153.207 300.408,153.412 L300.409,153.877 C300.402,153.901 300.392,153.925 300.382,153.949 C300.366,154.015 300.375,154.085 300.372,154.153 C300.362,154.346 300.352,154.54 300.342,154.734 C300.327,155.042 300.327,155.35 300.322,155.658 C300.388,156.16 300.348,156.305 300.291,156.983 C300.31,156.99 300.294,157 300.296,157.008 L300.295,157.125 C300.291,157.325 300.284,157.524 300.278,157.723 C300.25,158.447 300.262,158.105 300.24,158.75 L300.235,158.783 C300.234,158.819 300.231,158.854 300.228,158.89 C300.117,160.149 300.181,159.478 300.032,160.901 L236.373,177.173 L294.557,191.7 L294.545,191.757 C294.497,191.992 294.497,191.992 294.448,192.227 L294.451,192.24 C294.264,192.873 294.337,192.624 294.231,192.988 C293.933,194.036 293.59,195.072 293.262,196.113 C293.009,196.833 292.899,197.154 292.769,197.559 C292.762,197.599 292.736,197.655 292.724,197.685 C292.659,197.856 292.606,197.995 292.556,198.13 C292.306,198.784 292.075,199.445 291.867,200.114 L291.845,200.138 C291.812,200.229 291.534,201.002 291.497,201.112 C291.379,201.484 291.46,201.226 291.256,201.885 C291.201,202.027 290.927,202.743 290.89,202.848 C290.7,203.558 290.364,204.211 290.074,204.883 C290.079,204.995 290.023,205.099 289.983,205.2 C289.896,205.44 289.896,205.44 289.809,205.68 C289.589,206.277 289.316,206.868 289.058,207.454 C288.9,207.866 289.006,207.586 288.747,208.297 L288.743,208.304 C288.571,208.673 288.646,208.512 288.519,208.788 C288.39,209.088 288.264,209.39 288.138,209.692 C287.983,210.186 287.732,210.63 287.511,211.092 C287.443,211.274 287.373,211.457 287.305,211.638 L286.325,213.696 C286.258,213.828 286.193,213.961 286.127,214.093 C285.63,215.249 285.053,216.37 284.487,217.496 C284.427,217.603 284.031,218.349 283.957,218.486 C283.867,218.644 283.778,218.811 283.695,218.975 L283.703,219.02 C283.607,219.221 283.477,219.402 283.379,219.604 L283.379,219.612 C283.212,219.911 283.26,219.785 283.198,219.972 C283.125,220.096 283.169,220.022 283.066,220.194 C283.003,220.303 282.592,221.067 282.526,221.188 L282.497,221.276 L282.498,221.281 L282.223,221.703 L104.771,177.073 z" fill="#FFFFFF" fill-opacity="0.508"/>
  </g>
  <defs/>
</svg>
